<svg width="800" height="800" viewBox="0 0 800 800" fill="none" xmlns="http://www.w3.org/2000/svg">
<g filter="url(#filter0_d_143_1038)">
<path d="M564.609 71.8039L577.948 66.3124C599.236 57.5482 623.654 61.628 640.938 76.8368C651.054 85.739 657.908 97.7643 660.413 111.005L670.884 166.353C672.727 176.096 673.655 185.991 673.655 195.907V268.277C673.655 281.676 675.898 294.98 680.293 307.637L721.551 426.464C735.709 467.241 723.576 512.53 690.927 540.766C668.984 559.744 655.833 586.927 654.572 615.911L652 675H407H136.009V615.228C136.009 586.679 124.246 559.392 103.489 539.791C73.951 511.896 63.4105 469.329 76.5198 430.874L118.631 307.345C122.881 294.878 125.05 281.796 125.05 268.625V231.164V173.811L130.5 133L137.516 104.936C140.737 92.0528 148.363 80.7018 159.073 72.8501C176.496 60.0773 199.65 58.2742 218.841 68.1956L228.765 73.3266C232.672 75.3464 236.394 77.7064 239.887 80.3792L252.768 90.2363C273.703 106.256 299.331 114.936 325.692 114.936H463.225C490.473 114.936 516.91 105.663 538.187 88.6412L544.186 83.8423C550.388 78.8809 557.264 74.8274 564.609 71.8039Z" fill="#D1724A"/>
</g>
<g filter="url(#filter1_d_143_1038)">
<path d="M564.609 75.8039L577.948 70.3124C599.236 61.5482 623.654 65.628 640.938 80.8368C651.054 89.739 657.908 101.764 660.413 115.005L670.884 170.353C672.727 180.096 673.655 189.991 673.655 199.907V272.277C673.655 285.676 675.898 298.98 680.293 311.637L721.551 430.464C735.709 471.241 723.576 516.53 690.927 544.766C668.984 563.744 655.833 590.927 654.572 619.911L652 679H407H136.009V619.228C136.009 590.679 124.246 563.392 103.489 543.791C73.951 515.896 63.4105 473.329 76.5198 434.874L118.631 311.345C122.881 298.878 125.05 285.796 125.05 272.625V235.164V177.811L130.5 137L137.516 108.936C140.737 96.0528 148.363 84.7018 159.073 76.8501C176.496 64.0773 199.65 62.2742 218.841 72.1956L228.765 77.3266C232.672 79.3464 236.394 81.7064 239.887 84.3792L252.768 94.2363C273.703 110.256 299.331 118.936 325.692 118.936H463.225C490.473 118.936 516.91 109.663 538.187 92.6412L544.186 87.8423C550.388 82.8809 557.264 78.8274 564.609 75.8039Z" fill="#D1724A"/>
</g>
<path d="M657 444.607C657 526.596 487.713 630.607 408.522 630.607C329.331 630.607 162 526.596 162 444.607C162 362.619 363.544 390.607 408.522 390.607C453.5 390.607 657 362.619 657 444.607Z" fill="white"/>
<path d="M648.666 168.484C645.485 196.478 612.331 172.135 590.625 169.669C568.918 167.203 540.844 176.124 544.025 148.13C547.205 120.135 590.459 89.8567 612.166 92.3226C633.873 94.7884 651.846 140.489 648.666 168.484Z" fill="white"/>
<path d="M251.719 144.589C254.014 173.442 222.676 168.407 199.829 170.225C176.983 172.043 149.755 194.881 147.459 166.028C145.163 137.175 162.097 91.9774 184.944 90.1596C207.791 88.3418 249.423 115.736 251.719 144.589Z" fill="white"/>
<path d="M186.145 155.974C177.65 162.317 174.224 176.257 178.89 175.419C181.567 174.938 187.446 173.278 191.973 171.949C195.943 170.784 200.064 170.225 204.202 170.263C209.501 170.311 217.094 170.28 222.594 169.84C231.909 169.093 212.195 155.558 204.812 152.622C197.43 149.686 194.641 149.631 186.145 155.974Z" fill="#A67D5E"/>
<path d="M612.862 158.672C620.962 165.513 623.738 180.495 619.088 178.635C615.683 177.273 605.835 173.929 600.808 172.237C598.789 171.557 596.722 171.054 594.609 170.779C590.32 170.222 582.397 169.336 575.385 169.336C565.157 169.336 586.884 156.695 594.43 154.207C601.975 151.719 604.762 151.832 612.862 158.672Z" fill="#A67D5E"/>
<circle cx="324.5" cy="283.5" r="15.5" fill="white"/>
<circle cx="476.5" cy="283.5" r="15.5" fill="white"/>
<g clip-path="url(#clip0_143_1038)">
<path d="M136 677H652V800H136V677Z" fill="black"/>
<path d="M465.14 675C465.14 710.546 436.324 739.362 400.778 739.362C365.231 739.362 336.415 710.546 336.415 675C327.132 675 365.231 675 400.778 675C436.324 675 465.14 675 465.14 675Z" fill="#D1724A"/>
</g>
<g clip-path="url(#clip1_143_1038)">
<path d="M136 677H652V800H136V677Z" fill="white"/>
<circle cx="399" cy="745" r="10" fill="black"/>
<circle cx="399" cy="780" r="10" fill="black"/>
<rect x="136" y="677" width="516" height="42" fill="#F7F7F7"/>
<path d="M400.887 719.617L334 758.234L334 681L400.887 719.617Z" fill="black"/>
<path d="M396.472 719.617L463.359 758.234L463.359 681L396.472 719.617Z" fill="black"/>
</g>
<path d="M456 416.228C456 434.327 432.495 449 403.5 449C374.505 449 351 434.327 351 416.228C351 398.129 374.505 405.475 403.5 405.475C432.495 405.475 456 398.129 456 416.228Z" fill="black"/>
<path d="M403.624 565.624C347.735 565.624 302.18 521.379 300.076 466.005C299.992 463.797 301.791 462 304 462H503.248C505.457 462 507.256 463.797 507.172 466.005C505.068 521.379 459.512 565.624 403.624 565.624Z" fill="#78002B"/>
<path d="M325.283 462V478.176C325.283 484.997 330.812 490.525 337.632 490.525H469.614C476.435 490.525 481.963 484.996 481.963 478.176V462H325.283Z" fill="#F2F2F2"/>
<path d="M405.798 522.633C377.787 509.619 346.704 511.51 321.498 525.007C340.438 549.693 370.224 565.623 403.743 565.623C418.515 565.623 432.552 562.511 445.269 556.941C435.94 542.507 422.563 530.422 405.798 522.633Z" fill="#EDA3B2"/>
<path d="M510.556 447.612C510.03 446.995 510.098 446.059 510.784 445.628C511.478 445.193 512.224 444.843 513.007 444.589C514.256 444.183 515.572 444.027 516.881 444.129C518.191 444.232 519.467 444.592 520.637 445.188C521.807 445.784 522.849 446.604 523.702 447.603C524.555 448.601 525.203 449.758 525.609 451.007C526.015 452.256 526.171 453.572 526.068 454.881C525.965 456.191 525.606 457.467 525.01 458.637C524.636 459.37 524.175 460.053 523.637 460.67C523.104 461.281 522.168 461.202 521.641 460.586V460.586C521.115 459.97 521.203 459.051 521.697 458.408C521.963 458.064 522.196 457.694 522.394 457.305C522.815 456.478 523.07 455.577 523.142 454.652C523.215 453.727 523.105 452.797 522.818 451.914C522.531 451.032 522.073 450.215 521.47 449.509C520.868 448.804 520.132 448.224 519.305 447.803C518.478 447.382 517.577 447.128 516.652 447.055C515.727 446.983 514.797 447.093 513.914 447.38C513.499 447.515 513.097 447.688 512.716 447.896C512.004 448.284 511.083 448.228 510.556 447.612V447.612Z" fill="black"/>
<path d="M521.1 442.362C520.899 441.771 521.215 441.119 521.83 441.015C522.871 440.838 523.942 440.894 524.967 441.185C526.355 441.579 527.591 442.387 528.509 443.501C529.427 444.615 529.984 445.981 530.107 447.42C530.197 448.48 530.048 449.543 529.676 450.531C529.456 451.115 528.756 451.301 528.214 450.991V450.991C527.672 450.681 527.498 449.991 527.675 449.393C527.844 448.818 527.906 448.214 527.854 447.612C527.771 446.631 527.391 445.698 526.764 444.939C526.138 444.179 525.296 443.628 524.349 443.359C523.767 443.194 523.162 443.14 522.566 443.196C521.945 443.255 521.3 442.953 521.1 442.362V442.362Z" fill="black"/>
<path d="M291.49 447.612C292.017 446.995 291.949 446.059 291.262 445.628C290.568 445.193 289.822 444.843 289.04 444.589C287.791 444.183 286.474 444.027 285.165 444.129C283.856 444.232 282.58 444.592 281.41 445.188C280.239 445.784 279.198 446.604 278.345 447.603C277.492 448.601 276.844 449.758 276.438 451.007C276.032 452.256 275.876 453.572 275.978 454.881C276.081 456.191 276.441 457.467 277.037 458.637C277.41 459.37 277.872 460.053 278.41 460.67C278.942 461.281 279.879 461.202 280.405 460.586V460.586C280.931 459.97 280.844 459.051 280.349 458.408C280.084 458.064 279.85 457.694 279.652 457.305C279.231 456.478 278.977 455.577 278.904 454.652C278.832 453.727 278.942 452.797 279.229 451.914C279.516 451.032 279.974 450.215 280.576 449.509C281.179 448.804 281.915 448.224 282.741 447.803C283.568 447.382 284.47 447.128 285.395 447.055C286.32 446.983 287.25 447.093 288.132 447.38C288.548 447.515 288.949 447.688 289.331 447.896C290.042 448.284 290.964 448.228 291.49 447.612V447.612Z" fill="black"/>
<path d="M280.947 442.362C281.148 441.771 280.831 441.119 280.216 441.015C279.176 440.838 278.104 440.894 277.08 441.185C275.691 441.579 274.456 442.387 273.538 443.501C272.62 444.615 272.062 445.981 271.94 447.42C271.849 448.48 271.999 449.543 272.371 450.531C272.591 451.115 273.291 451.301 273.833 450.991V450.991C274.375 450.681 274.548 449.991 274.372 449.393C274.203 448.818 274.141 448.214 274.192 447.612C274.276 446.631 274.656 445.698 275.282 444.939C275.908 444.179 276.751 443.628 277.698 443.359C278.28 443.194 278.885 443.14 279.481 443.196C280.102 443.255 280.746 442.953 280.947 442.362V442.362Z" fill="black"/>
<path d="M359.491 334.037C359.491 346.801 338.731 359.074 324.753 359.074C310.775 359.074 292 347.783 292 334.037C292 320.291 310.775 309 324.753 309C338.731 309 359.491 321.273 359.491 334.037Z" fill="black"/>
<circle cx="345.34" cy="336.214" r="5.44283" fill="#D0D0D0"/>
<path d="M443 333.037C443 345.801 463.76 358.074 477.738 358.074C491.716 358.074 510.491 346.783 510.491 333.037C510.491 319.291 491.716 308 477.738 308C463.76 308 443 320.273 443 333.037Z" fill="black"/>
<circle cx="496.34" cy="335.214" r="5.44283" fill="#D0D0D0"/>
<defs>
<filter id="filter0_d_143_1038" x="65.9666" y="54.7566" width="666.421" height="623.243" filterUnits="userSpaceOnUse" color-interpolation-filters="sRGB">
<feFlood flood-opacity="0" result="BackgroundImageFix"/>
<feColorMatrix in="SourceAlpha" type="matrix" values="0 0 0 0 0 0 0 0 0 0 0 0 0 0 0 0 0 0 127 0" result="hardAlpha"/>
<feOffset dy="-2"/>
<feGaussianBlur stdDeviation="2.5"/>
<feComposite in2="hardAlpha" operator="out"/>
<feColorMatrix type="matrix" values="0 0 0 0 0 0 0 0 0 0 0 0 0 0 0 0 0 0 0.05 0"/>
<feBlend mode="normal" in2="BackgroundImageFix" result="effect1_dropShadow_143_1038"/>
<feBlend mode="normal" in="SourceGraphic" in2="effect1_dropShadow_143_1038" result="shape"/>
</filter>
<filter id="filter1_d_143_1038" x="65.9666" y="58.7566" width="666.421" height="623.243" filterUnits="userSpaceOnUse" color-interpolation-filters="sRGB">
<feFlood flood-opacity="0" result="BackgroundImageFix"/>
<feColorMatrix in="SourceAlpha" type="matrix" values="0 0 0 0 0 0 0 0 0 0 0 0 0 0 0 0 0 0 127 0" result="hardAlpha"/>
<feOffset dy="-2"/>
<feGaussianBlur stdDeviation="2.5"/>
<feComposite in2="hardAlpha" operator="out"/>
<feColorMatrix type="matrix" values="0 0 0 0 0 0 0 0 0 0 0 0 0 0 0 0 0 0 0.05 0"/>
<feBlend mode="normal" in2="BackgroundImageFix" result="effect1_dropShadow_143_1038"/>
<feBlend mode="normal" in="SourceGraphic" in2="effect1_dropShadow_143_1038" result="shape"/>
</filter>
<clipPath id="clip0_143_1038">
<rect width="800" height="800" fill="white"/>
</clipPath>
<clipPath id="clip1_143_1038">
<rect width="800" height="800" fill="white"/>
</clipPath>
</defs>
</svg>
