<svg width="800" height="800" viewBox="0 0 800 800" fill="none" xmlns="http://www.w3.org/2000/svg">
<g filter="url(#filter0_d_143_1038)">
<path d="M564.609 71.8039L577.948 66.3124C599.236 57.5482 623.654 61.628 640.938 76.8368C651.054 85.739 657.908 97.7643 660.413 111.005L670.884 166.353C672.727 176.096 673.655 185.991 673.655 195.907V268.277C673.655 281.676 675.898 294.98 680.293 307.637L721.551 426.464C735.709 467.241 723.576 512.53 690.927 540.766C668.984 559.744 655.833 586.927 654.572 615.911L652 675H407H136.009V615.228C136.009 586.679 124.246 559.392 103.489 539.791C73.951 511.896 63.4105 469.329 76.5198 430.874L118.631 307.345C122.881 294.878 125.05 281.796 125.05 268.625V231.164V173.811L130.5 133L137.516 104.936C140.737 92.0528 148.363 80.7018 159.073 72.8501C176.496 60.0773 199.65 58.2742 218.841 68.1956L228.765 73.3266C232.672 75.3464 236.394 77.7064 239.887 80.3792L252.768 90.2363C273.703 106.256 299.331 114.936 325.692 114.936H463.225C490.473 114.936 516.91 105.663 538.187 88.6412L544.186 83.8423C550.388 78.8809 557.264 74.8274 564.609 71.8039Z" fill="#D1724A"/>
</g>
<g filter="url(#filter1_d_143_1038)">
<path d="M564.609 75.8039L577.948 70.3124C599.236 61.5482 623.654 65.628 640.938 80.8368C651.054 89.739 657.908 101.764 660.413 115.005L670.884 170.353C672.727 180.096 673.655 189.991 673.655 199.907V272.277C673.655 285.676 675.898 298.98 680.293 311.637L721.551 430.464C735.709 471.241 723.576 516.53 690.927 544.766C668.984 563.744 655.833 590.927 654.572 619.911L652 679H407H136.009V619.228C136.009 590.679 124.246 563.392 103.489 543.791C73.951 515.896 63.4105 473.329 76.5198 434.874L118.631 311.345C122.881 298.878 125.05 285.796 125.05 272.625V235.164V177.811L130.5 137L137.516 108.936C140.737 96.0528 148.363 84.7018 159.073 76.8501C176.496 64.0773 199.65 62.2742 218.841 72.1956L228.765 77.3266C232.672 79.3464 236.394 81.7064 239.887 84.3792L252.768 94.2363C273.703 110.256 299.331 118.936 325.692 118.936H463.225C490.473 118.936 516.91 109.663 538.187 92.6412L544.186 87.8423C550.388 82.8809 557.264 78.8274 564.609 75.8039Z" fill="#D1724A"/>
</g>
<path d="M657 444.607C657 526.596 487.713 630.607 408.522 630.607C329.331 630.607 162 526.596 162 444.607C162 362.619 363.544 390.607 408.522 390.607C453.5 390.607 657 362.619 657 444.607Z" fill="white"/>
<path d="M648.666 168.484C645.485 196.478 612.331 172.135 590.625 169.669C568.918 167.203 540.844 176.124 544.025 148.13C547.205 120.135 590.459 89.8567 612.166 92.3226C633.873 94.7884 651.846 140.489 648.666 168.484Z" fill="white"/>
<path d="M251.719 144.589C254.014 173.442 222.676 168.407 199.829 170.225C176.983 172.043 149.755 194.881 147.459 166.028C145.163 137.175 162.097 91.9774 184.944 90.1596C207.791 88.3418 249.423 115.736 251.719 144.589Z" fill="white"/>
<path d="M186.145 155.974C177.65 162.317 174.224 176.257 178.89 175.419C181.567 174.938 187.446 173.278 191.973 171.949C195.943 170.784 200.064 170.225 204.202 170.263C209.501 170.311 217.094 170.28 222.594 169.84C231.909 169.093 212.195 155.558 204.812 152.622C197.43 149.686 194.641 149.631 186.145 155.974Z" fill="#A67D5E"/>
<path d="M612.862 158.672C620.962 165.513 623.738 180.495 619.088 178.635C615.683 177.273 605.835 173.929 600.808 172.237C598.789 171.557 596.722 171.054 594.609 170.779C590.32 170.222 582.397 169.336 575.385 169.336C565.157 169.336 586.884 156.695 594.43 154.207C601.975 151.719 604.762 151.832 612.862 158.672Z" fill="#A67D5E"/>
<circle cx="324.5" cy="283.5" r="15.5" fill="white"/>
<circle cx="476.5" cy="283.5" r="15.5" fill="white"/>
<g clip-path="url(#clip0_143_1038)">
<path d="M136 677H652V800H136V677Z" fill="black"/>
<path d="M465.14 675C465.14 710.546 436.324 739.362 400.778 739.362C365.231 739.362 336.415 710.546 336.415 675C327.132 675 365.231 675 400.778 675C436.324 675 465.14 675 465.14 675Z" fill="#D1724A"/>
</g>
<path d="M437 492.295C437 520 412.754 520 402.437 520C394.698 520 372 520 372 492.295C372 492.295 380.625 487.049 387.476 480.518C394.327 473.986 405.016 460.82 405.016 460L421.524 480.518L437 492.295Z" fill="#F1B2BD"/>
<path d="M456 416.228C456 434.327 432.495 449 403.5 449C374.505 449 351 434.327 351 416.228C351 398.129 374.505 405.475 403.5 405.475C432.495 405.475 456 398.129 456 416.228Z" fill="black"/>
<path d="M404 425V453.378C404 465.246 410.073 476.289 420.096 482.645V482.645C431.085 489.615 445.053 489.841 456.262 483.23L465 478.077" stroke="black" stroke-width="10" stroke-linecap="round"/>
<path d="M404 426V454.378C404 466.246 397.927 477.289 387.904 483.645V483.645C376.915 490.615 362.947 490.841 351.738 484.23L343 479.077" stroke="black" stroke-width="10" stroke-linecap="round"/>
<circle cx="428.354" cy="456.312" r="4.35417" fill="black" fill-opacity="0.36"/>
<circle r="4.35417" transform="matrix(-1 0 0 1 381.979 456.313)" fill="black" fill-opacity="0.36"/>
<circle cx="444.979" cy="452.354" r="4.35417" fill="black" fill-opacity="0.36"/>
<circle r="4.35417" transform="matrix(-1 0 0 1 365.354 452.354)" fill="black" fill-opacity="0.36"/>
<circle cx="441.812" cy="469.771" r="4.35417" fill="black" fill-opacity="0.36"/>
<circle r="4.35417" transform="matrix(-1 0 0 1 368.521 469.771)" fill="black" fill-opacity="0.36"/>
<path d="M276.846 304.27C265.601 308.472 259.063 318.04 257.893 328.162C257.527 331.343 257.493 335.535 257.876 340.19L297.209 300.856C288.768 301.413 281.455 302.546 276.846 304.27Z" fill="#F2F2F2"/>
<path d="M276.846 304.27C265.601 308.472 259.063 318.04 257.893 328.162C257.527 331.343 257.493 335.535 257.876 340.19L297.209 300.856C288.768 301.413 281.455 302.546 276.846 304.27Z" fill="#05293D"/>
<path d="M355.953 306.738C351.855 304.942 346.027 303.531 339.333 302.505L268.469 373.366C269.29 374.553 270.144 375.708 271.074 376.781C276.105 382.57 281.535 386.62 287.559 389.145C295.334 392.41 303.213 393.261 303.213 393.261H314.75C314.75 393.261 338.123 392.389 353.482 378.431C366.879 366.257 372.549 341.831 372.435 328.993C372.381 323.326 366.83 311.511 355.953 306.738Z" fill="#F2F2F2"/>
<path d="M355.953 306.738C351.855 304.942 346.027 303.531 339.333 302.505L268.469 373.366C269.29 374.553 270.144 375.708 271.074 376.781C276.105 382.57 281.535 386.62 287.559 389.145C295.334 392.41 303.213 393.261 303.213 393.261H314.75C314.75 393.261 338.123 392.389 353.482 378.431C366.879 366.257 372.549 341.831 372.435 328.993C372.381 323.326 366.83 311.511 355.953 306.738Z" fill="#05293D"/>
<path d="M314.85 300.505L260.387 354.971C261.006 357.314 261.743 359.651 262.602 361.937L323.67 300.873C320.751 300.693 317.797 300.569 314.85 300.505Z" fill="#F2F2F2"/>
<path d="M314.85 300.505L260.387 354.971C261.006 357.314 261.743 359.651 262.602 361.937L323.67 300.873C320.751 300.693 317.797 300.569 314.85 300.505Z" fill="#05293D"/>
<path d="M443.3 306.738C432.422 311.511 426.871 323.326 426.82 328.993C426.771 334.645 427.844 342.542 430.199 350.651L480.211 300.633C465.568 301.228 451.215 303.267 443.3 306.738Z" fill="#F2F2F2"/>
<path d="M443.3 306.738C432.422 311.511 426.871 323.326 426.82 328.993C426.771 334.645 427.844 342.542 430.199 350.651L480.211 300.633C465.568 301.228 451.215 303.267 443.3 306.738Z" fill="#05293D"/>
<path d="M497.532 300.613L434.962 363.186C435.949 365.238 437.036 367.222 438.217 369.119L506.16 301.178C503.424 300.924 500.53 300.734 497.532 300.613Z" fill="#F2F2F2"/>
<path d="M497.532 300.613L434.962 363.186C435.949 365.238 437.036 367.222 438.217 369.119L506.16 301.178C503.424 300.924 500.53 300.734 497.532 300.613Z" fill="#05293D"/>
<path d="M541.365 328.16C540.192 318.04 533.649 308.472 522.408 304.269C521.926 304.089 521.415 303.916 520.877 303.749L445.996 378.625C459.317 390.567 478.493 392.804 483.346 393.186C483.858 393.024 484.273 393.063 484.584 393.261H496.037C496.037 393.261 503.915 392.41 511.697 389.145C517.717 386.618 523.15 382.57 528.175 376.781C539.976 363.198 542.655 339.445 541.365 328.16Z" fill="#F2F2F2"/>
<path d="M541.365 328.16C540.192 318.04 533.649 308.472 522.408 304.269C521.926 304.089 521.415 303.916 520.877 303.749L445.996 378.625C459.317 390.567 478.493 392.804 483.346 393.186C483.858 393.024 484.273 393.063 484.584 393.261H496.037C496.037 393.261 503.915 392.41 511.697 389.145C517.717 386.618 523.15 382.57 528.175 376.781C539.976 363.198 542.655 339.445 541.365 328.16Z" fill="#05293D"/>
<path d="M297.207 300.854L257.875 340.189C258.255 344.812 259.045 349.892 260.387 354.971L314.85 300.505C308.771 300.372 302.748 300.489 297.207 300.854Z" fill="#F2F2F2"/>
<path d="M323.67 300.874L262.602 361.939C264.134 366.014 266.079 369.904 268.47 373.368L339.333 302.506C334.462 301.756 329.137 301.213 323.67 300.874Z" fill="#F2F2F2"/>
<path d="M480.213 300.633L430.201 350.651C431.428 354.869 433.016 359.137 434.964 363.186L497.534 300.613C491.973 300.388 486.071 300.394 480.213 300.633Z" fill="#F2F2F2"/>
<path d="M506.16 301.179L438.217 369.12C440.4 372.624 442.897 375.822 445.771 378.433C445.845 378.499 445.922 378.561 445.996 378.627L520.877 303.75C517.116 302.582 512.008 301.727 506.16 301.179Z" fill="#F2F2F2"/>
<path d="M250.477 309.206C254.845 308.801 259.114 307.223 258.72 305.918C258.304 304.552 254.411 303.861 249.651 304.27C244.875 304.678 241.069 306.246 241.41 307.565C241.825 309.141 245.719 309.662 250.477 309.206Z" fill="#F2F2F2"/>
<path d="M549.186 304.238C544.402 303.866 540.391 304.794 540.517 306.147C540.671 307.768 544.432 308.918 549.195 309.248C553.573 309.548 558.038 308.676 557.858 307.326C557.671 305.918 553.949 304.606 549.186 304.238Z" fill="#F2F2F2"/>
<path d="M472.96 291.905C442.206 293.372 415.132 307.199 398.801 307.563C382.173 307.936 364.899 295.056 324.64 291.905C275.53 288.067 234 297.677 234 297.677L235.643 316.633C235.643 316.633 243.971 318.542 246.355 328.159C249.671 341.54 248.55 365.298 260.364 379.253C274.17 395.565 288.129 399.047 302.391 399.857C316.313 400.639 347.672 398.811 365.016 379.253C371.604 371.825 376.9 361.737 380.675 352.06C384.979 341.017 387.735 329.095 392.212 325.691C393.853 324.446 396.157 324.827 398.801 324.866C402.439 324.917 405.561 324.884 407.867 327.338C413.472 333.293 415.908 346.624 421.05 358.656C424.42 366.536 429.893 374.393 435.88 380.901C451.303 397.654 486.031 400.605 498.51 399.857C512.239 399.028 527.67 394.227 537.241 381.729C541.895 375.642 545.097 368.091 547.127 360.304C550.056 349.047 550.878 337.317 552.901 328.992C555.582 317.929 562.784 317.452 562.784 317.452L565.255 297.675C565.255 297.677 523.635 289.487 472.96 291.905ZM353.482 378.431C338.121 392.387 314.75 393.261 314.75 393.261H303.213C303.213 393.261 295.334 392.41 287.559 389.145C281.535 386.618 276.105 382.57 271.074 376.781C270.144 375.71 269.289 374.555 268.469 373.366C266.079 369.903 264.136 366.014 262.602 361.937C261.743 359.651 261.006 357.314 260.387 354.971C259.045 349.892 258.255 344.812 257.875 340.189C257.491 335.533 257.525 331.341 257.892 328.16C259.063 318.04 265.601 308.472 276.844 304.269C281.454 302.546 288.766 301.413 297.206 300.854C302.747 300.488 308.769 300.372 314.849 300.505C317.795 300.569 320.75 300.693 323.668 300.873C329.134 301.213 334.46 301.756 339.33 302.505C346.024 303.531 351.852 304.942 355.95 306.738C366.827 311.511 372.378 323.326 372.432 328.993C372.549 341.831 366.879 366.257 353.482 378.431ZM241.41 307.563C241.068 306.244 244.875 304.677 249.651 304.269C254.411 303.859 258.304 304.552 258.72 305.916C259.115 307.222 254.845 308.8 250.477 309.205C245.719 309.662 241.825 309.141 241.41 307.563ZM549.195 309.248C544.432 308.918 540.671 307.768 540.517 306.147C540.391 304.794 544.401 303.866 549.186 304.238C553.949 304.606 557.671 305.918 557.858 307.326C558.038 308.676 553.573 309.548 549.195 309.248ZM511.697 389.145C503.915 392.41 496.037 393.261 496.037 393.261H484.584C484.274 393.063 483.858 393.024 483.346 393.186C478.495 392.804 459.319 390.567 445.996 378.625C445.922 378.559 445.845 378.498 445.771 378.431C442.897 375.82 440.4 372.624 438.217 369.119C437.034 367.221 435.948 365.238 434.962 363.186C433.015 359.137 431.426 354.871 430.199 350.651C427.844 342.541 426.769 334.645 426.82 328.993C426.871 323.326 432.422 311.511 443.3 306.738C451.215 303.267 465.568 301.228 480.213 300.633C486.072 300.394 491.975 300.388 497.532 300.613C500.53 300.734 503.424 300.924 506.16 301.179C512.008 301.729 517.116 302.583 520.877 303.75C521.416 303.916 521.927 304.09 522.408 304.27C533.651 308.472 540.193 318.04 541.365 328.162C542.655 339.447 539.976 363.2 528.175 376.783C523.15 382.57 517.717 386.62 511.697 389.145Z" fill="#05293D"/>
<defs>
<filter id="filter0_d_143_1038" x="65.9666" y="54.7566" width="666.421" height="623.243" filterUnits="userSpaceOnUse" color-interpolation-filters="sRGB">
<feFlood flood-opacity="0" result="BackgroundImageFix"/>
<feColorMatrix in="SourceAlpha" type="matrix" values="0 0 0 0 0 0 0 0 0 0 0 0 0 0 0 0 0 0 127 0" result="hardAlpha"/>
<feOffset dy="-2"/>
<feGaussianBlur stdDeviation="2.5"/>
<feComposite in2="hardAlpha" operator="out"/>
<feColorMatrix type="matrix" values="0 0 0 0 0 0 0 0 0 0 0 0 0 0 0 0 0 0 0.05 0"/>
<feBlend mode="normal" in2="BackgroundImageFix" result="effect1_dropShadow_143_1038"/>
<feBlend mode="normal" in="SourceGraphic" in2="effect1_dropShadow_143_1038" result="shape"/>
</filter>
<filter id="filter1_d_143_1038" x="65.9666" y="58.7566" width="666.421" height="623.243" filterUnits="userSpaceOnUse" color-interpolation-filters="sRGB">
<feFlood flood-opacity="0" result="BackgroundImageFix"/>
<feColorMatrix in="SourceAlpha" type="matrix" values="0 0 0 0 0 0 0 0 0 0 0 0 0 0 0 0 0 0 127 0" result="hardAlpha"/>
<feOffset dy="-2"/>
<feGaussianBlur stdDeviation="2.5"/>
<feComposite in2="hardAlpha" operator="out"/>
<feColorMatrix type="matrix" values="0 0 0 0 0 0 0 0 0 0 0 0 0 0 0 0 0 0 0.05 0"/>
<feBlend mode="normal" in2="BackgroundImageFix" result="effect1_dropShadow_143_1038"/>
<feBlend mode="normal" in="SourceGraphic" in2="effect1_dropShadow_143_1038" result="shape"/>
</filter>
<clipPath id="clip0_143_1038">
<rect width="800" height="800" fill="white"/>
</clipPath>
</defs>
</svg>
