<svg width="800" height="800" viewBox="0 0 800 800" fill="none" xmlns="http://www.w3.org/2000/svg">
<g filter="url(#filter0_d_143_1038)">
<path d="M564.609 71.8039L577.948 66.3124C599.236 57.5482 623.654 61.628 640.938 76.8368C651.054 85.739 657.908 97.7643 660.413 111.005L670.884 166.353C672.727 176.096 673.655 185.991 673.655 195.907V268.277C673.655 281.676 675.898 294.98 680.293 307.637L721.551 426.464C735.709 467.241 723.576 512.53 690.927 540.766C668.984 559.744 655.833 586.927 654.572 615.911L652 675H407H136.009V615.228C136.009 586.679 124.246 559.392 103.489 539.791C73.951 511.896 63.4105 469.329 76.5198 430.874L118.631 307.345C122.881 294.878 125.05 281.796 125.05 268.625V231.164V173.811L130.5 133L137.516 104.936C140.737 92.0528 148.363 80.7018 159.073 72.8501C176.496 60.0773 199.65 58.2742 218.841 68.1956L228.765 73.3266C232.672 75.3464 236.394 77.7064 239.887 80.3792L252.768 90.2363C273.703 106.256 299.331 114.936 325.692 114.936H463.225C490.473 114.936 516.91 105.663 538.187 88.6412L544.186 83.8423C550.388 78.8809 557.264 74.8274 564.609 71.8039Z" fill="#D1724A"/>
</g>
<g filter="url(#filter1_d_143_1038)">
<path d="M564.609 75.8039L577.948 70.3124C599.236 61.5482 623.654 65.628 640.938 80.8368C651.054 89.739 657.908 101.764 660.413 115.005L670.884 170.353C672.727 180.096 673.655 189.991 673.655 199.907V272.277C673.655 285.676 675.898 298.98 680.293 311.637L721.551 430.464C735.709 471.241 723.576 516.53 690.927 544.766C668.984 563.744 655.833 590.927 654.572 619.911L652 679H407H136.009V619.228C136.009 590.679 124.246 563.392 103.489 543.791C73.951 515.896 63.4105 473.329 76.5198 434.874L118.631 311.345C122.881 298.878 125.05 285.796 125.05 272.625V235.164V177.811L130.5 137L137.516 108.936C140.737 96.0528 148.363 84.7018 159.073 76.8501C176.496 64.0773 199.65 62.2742 218.841 72.1956L228.765 77.3266C232.672 79.3464 236.394 81.7064 239.887 84.3792L252.768 94.2363C273.703 110.256 299.331 118.936 325.692 118.936H463.225C490.473 118.936 516.91 109.663 538.187 92.6412L544.186 87.8423C550.388 82.8809 557.264 78.8274 564.609 75.8039Z" fill="#D1724A"/>
</g>
<path d="M657 444.607C657 526.596 487.713 630.607 408.522 630.607C329.331 630.607 162 526.596 162 444.607C162 362.619 363.544 390.607 408.522 390.607C453.5 390.607 657 362.619 657 444.607Z" fill="white"/>
<path d="M648.666 168.484C645.485 196.478 612.331 172.135 590.625 169.669C568.918 167.203 540.844 176.124 544.025 148.13C547.205 120.135 590.459 89.8567 612.166 92.3226C633.873 94.7884 651.846 140.489 648.666 168.484Z" fill="white"/>
<path d="M251.719 144.589C254.014 173.442 222.676 168.407 199.829 170.225C176.983 172.043 149.755 194.881 147.459 166.028C145.163 137.175 162.097 91.9774 184.944 90.1596C207.791 88.3418 249.423 115.736 251.719 144.589Z" fill="white"/>
<path d="M186.145 155.974C177.65 162.317 174.224 176.257 178.89 175.419C181.567 174.938 187.446 173.278 191.973 171.949C195.943 170.784 200.064 170.225 204.202 170.263C209.501 170.311 217.094 170.28 222.594 169.84C231.909 169.093 212.195 155.558 204.812 152.622C197.43 149.686 194.641 149.631 186.145 155.974Z" fill="#A67D5E"/>
<path d="M612.862 158.672C620.962 165.513 623.738 180.495 619.088 178.635C615.683 177.273 605.835 173.929 600.808 172.237C598.789 171.557 596.722 171.054 594.609 170.779C590.32 170.222 582.397 169.336 575.385 169.336C565.157 169.336 586.884 156.695 594.43 154.207C601.975 151.719 604.762 151.832 612.862 158.672Z" fill="#A67D5E"/>
<circle cx="324.5" cy="283.5" r="15.5" fill="white"/>
<circle cx="476.5" cy="283.5" r="15.5" fill="white"/>
<g clip-path="url(#clip0_143_1038)">
<path d="M136 677H652V800H136V677Z" fill="#F2F4FF"/>
<path d="M399.5 785L336.713 676.25H462.287L399.5 785Z" fill="#464655"/>
<path d="M573.385 767.596V752.42C573.385 746.541 568.609 741.758 562.74 741.758H562.569C556.7 741.758 551.924 746.541 551.924 752.42V774.098C551.924 781.02 546.302 786.652 539.391 786.652H539.094C532.183 786.652 526.56 781.02 526.56 774.098V746.012C539.398 744.906 549.507 734.088 549.507 720.949V700.631C552.295 699.714 554.315 697.084 554.315 693.989C554.315 690.136 551.185 687 547.337 687C543.489 687 540.358 690.136 540.358 693.989C540.358 697.084 542.378 699.714 545.166 700.631V720.949C545.166 732.423 535.845 741.759 524.389 741.759H523.925C512.469 741.759 503.149 732.423 503.149 720.949V700.631C505.937 699.714 507.956 697.084 507.956 693.989C507.957 690.135 504.826 687 500.978 687C497.13 687 494 690.135 494 693.989C494 697.084 496.02 699.714 498.807 700.63V720.949C498.807 734.246 509.162 745.165 522.218 746.047V774.098C522.218 783.418 529.788 791 539.094 791H539.391C548.695 791 556.266 783.418 556.266 774.098V752.42C556.266 748.939 559.094 746.107 562.569 746.107H562.74C566.216 746.107 569.043 748.939 569.043 752.42V767.596C563.579 768.619 559.428 773.43 559.428 779.196C559.428 785.705 564.715 791 571.214 791C577.713 791 583 785.705 583 779.196C583 773.43 578.85 768.619 573.385 767.596V767.596ZM547.337 691.348C548.79 691.348 549.973 692.533 549.973 693.989C549.973 695.445 548.79 696.63 547.337 696.63C545.883 696.63 544.7 695.446 544.7 693.989C544.7 692.533 545.883 691.348 547.337 691.348ZM500.978 691.348C502.432 691.348 503.615 692.533 503.615 693.989C503.615 695.445 502.432 696.63 500.978 696.63C499.524 696.63 498.341 695.446 498.341 693.989C498.341 692.533 499.524 691.348 500.978 691.348ZM571.214 786.652C567.109 786.652 563.77 783.307 563.77 779.196C563.77 775.085 567.109 771.74 571.214 771.74C575.319 771.74 578.659 775.085 578.659 779.196C578.659 783.307 575.319 786.652 571.214 786.652Z" fill="black"/>
<rect x="272" y="710" width="15" height="52" rx="2" fill="#CB1111"/>
<rect width="15" height="52" rx="2" transform="matrix(1.19249e-08 -1 -1 -1.19249e-08 305 742)" fill="#CB1111"/>
</g>
<path d="M437 492.295C437 520 412.754 520 402.437 520C394.698 520 372 520 372 492.295C372 492.295 380.625 487.049 387.476 480.518C394.327 473.986 405.016 460.82 405.016 460L421.524 480.518L437 492.295Z" fill="#F1B2BD"/>
<path d="M456 416.228C456 434.327 432.495 449 403.5 449C374.505 449 351 434.327 351 416.228C351 398.129 374.505 405.475 403.5 405.475C432.495 405.475 456 398.129 456 416.228Z" fill="black"/>
<path d="M404 425V453.378C404 465.246 410.073 476.289 420.096 482.645V482.645C431.085 489.615 445.053 489.841 456.262 483.23L465 478.077" stroke="black" stroke-width="10" stroke-linecap="round"/>
<path d="M404 426V454.378C404 466.246 397.927 477.289 387.904 483.645V483.645C376.915 490.615 362.947 490.841 351.738 484.23L343 479.077" stroke="black" stroke-width="10" stroke-linecap="round"/>
<circle cx="428.354" cy="456.312" r="4.35417" fill="black" fill-opacity="0.36"/>
<circle r="4.35417" transform="matrix(-1 0 0 1 381.979 456.313)" fill="black" fill-opacity="0.36"/>
<circle cx="444.979" cy="452.354" r="4.35417" fill="black" fill-opacity="0.36"/>
<circle r="4.35417" transform="matrix(-1 0 0 1 365.354 452.354)" fill="black" fill-opacity="0.36"/>
<circle cx="441.812" cy="469.771" r="4.35417" fill="black" fill-opacity="0.36"/>
<circle r="4.35417" transform="matrix(-1 0 0 1 368.521 469.771)" fill="black" fill-opacity="0.36"/>
<path d="M359.491 334.037C359.491 346.801 338.731 359.074 324.753 359.074C310.775 359.074 292 347.783 292 334.037C292 320.291 310.775 309 324.753 309C338.731 309 359.491 321.273 359.491 334.037Z" fill="black"/>
<circle cx="345.34" cy="336.214" r="5.44283" fill="#D0D0D0"/>
<path d="M443 333.037C443 345.801 463.76 358.074 477.738 358.074C491.716 358.074 510.491 346.783 510.491 333.037C510.491 319.291 491.716 308 477.738 308C463.76 308 443 320.273 443 333.037Z" fill="black"/>
<circle cx="496.34" cy="335.214" r="5.44283" fill="#D0D0D0"/>
<defs>
<filter id="filter0_d_143_1038" x="65.9666" y="54.7566" width="666.421" height="623.243" filterUnits="userSpaceOnUse" color-interpolation-filters="sRGB">
<feFlood flood-opacity="0" result="BackgroundImageFix"/>
<feColorMatrix in="SourceAlpha" type="matrix" values="0 0 0 0 0 0 0 0 0 0 0 0 0 0 0 0 0 0 127 0" result="hardAlpha"/>
<feOffset dy="-2"/>
<feGaussianBlur stdDeviation="2.5"/>
<feComposite in2="hardAlpha" operator="out"/>
<feColorMatrix type="matrix" values="0 0 0 0 0 0 0 0 0 0 0 0 0 0 0 0 0 0 0.05 0"/>
<feBlend mode="normal" in2="BackgroundImageFix" result="effect1_dropShadow_143_1038"/>
<feBlend mode="normal" in="SourceGraphic" in2="effect1_dropShadow_143_1038" result="shape"/>
</filter>
<filter id="filter1_d_143_1038" x="65.9666" y="58.7566" width="666.421" height="623.243" filterUnits="userSpaceOnUse" color-interpolation-filters="sRGB">
<feFlood flood-opacity="0" result="BackgroundImageFix"/>
<feColorMatrix in="SourceAlpha" type="matrix" values="0 0 0 0 0 0 0 0 0 0 0 0 0 0 0 0 0 0 127 0" result="hardAlpha"/>
<feOffset dy="-2"/>
<feGaussianBlur stdDeviation="2.5"/>
<feComposite in2="hardAlpha" operator="out"/>
<feColorMatrix type="matrix" values="0 0 0 0 0 0 0 0 0 0 0 0 0 0 0 0 0 0 0.05 0"/>
<feBlend mode="normal" in2="BackgroundImageFix" result="effect1_dropShadow_143_1038"/>
<feBlend mode="normal" in="SourceGraphic" in2="effect1_dropShadow_143_1038" result="shape"/>
</filter>
<clipPath id="clip0_143_1038">
<rect width="800" height="800" fill="white"/>
</clipPath>
</defs>
</svg>
